<svg width="227" height="215" viewBox="0 0 227 215" fill="none" xmlns="http://www.w3.org/2000/svg">
<path d="M168 54V38L6 38V54L168 54Z" fill="#141542"/>
<path d="M135 79V62L6 62V79L135 79Z" fill="#141542"/>
<path d="M119 102L119 86L6 86L6 102L119 102Z" fill="#141542"/>
<path d="M86 125L86 109L6 109L6 125L86 125Z" fill="#141542"/>
<path d="M74 148L74 132L6 132L6 148H74Z" fill="#141542"/>
<path d="M46 171L46 155H6L6 171H46Z" fill="#141542"/>
<text fill="black" xml:space="preserve" style="white-space: pre" font-family="Hoefler Text" font-size="11" letter-spacing="0em"><tspan x="2.85803" y="18.5535">People directly served at each site</tspan></text>
<text fill="black" fill-opacity="0.4" xml:space="preserve" style="white-space: pre" font-family="Hoefler Text" font-size="8" letter-spacing="0em"><tspan x="3" y="198.768">Estimated by B2P based on focus groups held with community </tspan><tspan x="3" y="206.768">leaders and stakeholders.</tspan></text>
<text fill="white" xml:space="preserve" style="white-space: pre" font-family="Hoefler Text" font-size="10" letter-spacing="0em"><tspan x="12" y="49.21">Muregeya</tspan></text>
<text fill="white" xml:space="preserve" style="white-space: pre" font-family="Hoefler Text" font-size="10" letter-spacing="0em"><tspan x="11" y="73.21">Kanyarira</tspan></text>
<text fill="white" xml:space="preserve" style="white-space: pre" font-family="Hoefler Text" font-size="10" letter-spacing="0em"><tspan x="12" y="97.21">Gahororo</tspan></text>
<text fill="white" xml:space="preserve" style="white-space: pre" font-family="Hoefler Text" font-size="10" letter-spacing="0em"><tspan x="12" y="120.21">Ruharazi</tspan></text>
<text fill="white" xml:space="preserve" style="white-space: pre" font-family="Hoefler Text" font-size="10" letter-spacing="0em"><tspan x="12" y="143.21">Rwamamara</tspan></text>
<text fill="white" xml:space="preserve" style="white-space: pre" font-family="Hoefler Text" font-size="10" letter-spacing="0em"><tspan x="11" y="167.21">Rwimvu</tspan></text>
<text fill="#141542" xml:space="preserve" style="white-space: pre" font-family="Hoefler Text" font-size="10" letter-spacing="0em"><tspan x="45.375" y="167.21">bu</tspan></text>
<text fill="#141542" xml:space="preserve" style="white-space: pre" font-family="Hoefler Text" font-size="10" letter-spacing="0em"><tspan x="174.166" y="49.21">10,000</tspan></text>
<text fill="#141542" xml:space="preserve" style="white-space: pre" font-family="Hoefler Text" font-size="10" letter-spacing="0em"><tspan x="140.844" y="73.21">8,000</tspan></text>
<text fill="#141542" xml:space="preserve" style="white-space: pre" font-family="Hoefler Text" font-size="10" letter-spacing="0em"><tspan x="124.908" y="96.21">7,000</tspan></text>
<text fill="#141542" xml:space="preserve" style="white-space: pre" font-family="Hoefler Text" font-size="10" letter-spacing="0em"><tspan x="91.5293" y="119.21">4,959</tspan></text>
<text fill="#141542" xml:space="preserve" style="white-space: pre" font-family="Hoefler Text" font-size="10" letter-spacing="0em"><tspan x="80.7812" y="143.21">4,200</tspan></text>
<text fill="#141542" xml:space="preserve" style="white-space: pre" font-family="Hoefler Text" font-size="10" letter-spacing="0em"><tspan x="65.0312" y="167.21">2,500</tspan></text>
<line x1="5.58079" y1="179" x2="5.58079" y2="33.0004" stroke="#141542" stroke-width="1.2"/>
</svg>
